<svg width="141" height="43" viewBox="0 0 141 43" fill="none" xmlns="http://www.w3.org/2000/svg">
<rect width="140" height="43" transform="translate(0.5)" fill="#5ECE7B"/>
<path d="M30.9793 20.96C30.9793 20.3533 31.0866 19.7607 31.3013 19.182C31.5159 18.594 31.8286 18.062 32.2393 17.586C32.6593 17.1007 33.1679 16.718 33.7653 16.438C34.3626 16.1487 35.0393 16.004 35.7953 16.004C36.6913 16.004 37.4659 16.2093 38.1193 16.62C38.7726 17.0213 39.2579 17.5393 39.5753 18.174L38.3433 19C38.1566 18.5987 37.9186 18.2813 37.6293 18.048C37.3493 17.8147 37.0413 17.6513 36.7053 17.558C36.3786 17.4647 36.0566 17.418 35.7393 17.418C35.2166 17.418 34.7593 17.5253 34.3673 17.74C33.9753 17.9453 33.6439 18.2207 33.3733 18.566C33.1119 18.9113 32.9113 19.2987 32.7713 19.728C32.6406 20.1573 32.5753 20.5867 32.5753 21.016C32.5753 21.492 32.6546 21.954 32.8133 22.402C32.9719 22.8407 33.1913 23.2327 33.4713 23.578C33.7606 23.914 34.1013 24.18 34.4933 24.376C34.8853 24.572 35.3146 24.67 35.7813 24.67C36.0986 24.67 36.4299 24.614 36.7753 24.502C37.1206 24.39 37.4379 24.2173 37.7273 23.984C38.0259 23.7413 38.2593 23.424 38.4273 23.032L39.7293 23.774C39.5239 24.2687 39.2019 24.6887 38.7633 25.034C38.3339 25.3793 37.8486 25.6407 37.3073 25.818C36.7753 25.9953 36.2479 26.084 35.7253 26.084C35.0253 26.084 34.3859 25.9393 33.8073 25.65C33.2286 25.3513 32.7293 24.9593 32.3093 24.474C31.8893 23.9793 31.5626 23.4287 31.3293 22.822C31.0959 22.206 30.9793 21.5853 30.9793 20.96ZM49.3416 16.06V26H47.7596V21.618H42.7476V26H41.1796V16.06H42.7476V20.218H47.7596V16.06H49.3416ZM58.4019 24.614V26H51.5839V16.06H58.2759V17.446H53.1519V20.274H57.5899V21.576H53.1519V24.614H58.4019ZM59.2117 20.96C59.2117 20.3533 59.319 19.7607 59.5337 19.182C59.7483 18.594 60.061 18.062 60.4717 17.586C60.8917 17.1007 61.4003 16.718 61.9977 16.438C62.595 16.1487 63.2717 16.004 64.0277 16.004C64.9237 16.004 65.6983 16.2093 66.3517 16.62C67.005 17.0213 67.4903 17.5393 67.8077 18.174L66.5757 19C66.389 18.5987 66.151 18.2813 65.8617 18.048C65.5817 17.8147 65.2737 17.6513 64.9377 17.558C64.611 17.4647 64.289 17.418 63.9717 17.418C63.449 17.418 62.9917 17.5253 62.5997 17.74C62.2077 17.9453 61.8763 18.2207 61.6057 18.566C61.3443 18.9113 61.1437 19.2987 61.0037 19.728C60.873 20.1573 60.8077 20.5867 60.8077 21.016C60.8077 21.492 60.887 21.954 61.0457 22.402C61.2043 22.8407 61.4237 23.2327 61.7037 23.578C61.993 23.914 62.3337 24.18 62.7257 24.376C63.1177 24.572 63.547 24.67 64.0137 24.67C64.331 24.67 64.6623 24.614 65.0077 24.502C65.353 24.39 65.6703 24.2173 65.9597 23.984C66.2583 23.7413 66.4917 23.424 66.6597 23.032L67.9617 23.774C67.7563 24.2687 67.4343 24.6887 66.9957 25.034C66.5663 25.3793 66.081 25.6407 65.5397 25.818C65.0077 25.9953 64.4803 26.084 63.9577 26.084C63.2577 26.084 62.6183 25.9393 62.0397 25.65C61.461 25.3513 60.9617 24.9593 60.5417 24.474C60.1217 23.9793 59.795 23.4287 59.5617 22.822C59.3283 22.206 59.2117 21.5853 59.2117 20.96ZM69.412 26V16.074H70.98V21.184L75.656 16.06H77.392L73.472 20.456L77.616 26H75.838L72.478 21.45L70.98 23.004V26H69.412ZM86.0791 26.07C85.3604 26.07 84.7118 25.93 84.1331 25.65C83.5544 25.37 83.0551 24.992 82.6351 24.516C82.2151 24.0307 81.8884 23.4893 81.6551 22.892C81.4311 22.2853 81.3191 21.6647 81.3191 21.03C81.3191 20.3673 81.4404 19.7373 81.6831 19.14C81.9258 18.5333 82.2618 17.9967 82.6911 17.53C83.1204 17.054 83.6244 16.6807 84.2031 16.41C84.7911 16.13 85.4258 15.99 86.1071 15.99C86.8164 15.99 87.4604 16.1347 88.0391 16.424C88.6271 16.7133 89.1264 17.1007 89.5371 17.586C89.9571 18.0713 90.2791 18.6127 90.5031 19.21C90.7364 19.8073 90.8531 20.4187 90.8531 21.044C90.8531 21.7067 90.7318 22.3413 90.4891 22.948C90.2558 23.5453 89.9244 24.082 89.4951 24.558C89.0658 25.0247 88.5571 25.3933 87.9691 25.664C87.3904 25.9347 86.7604 26.07 86.0791 26.07ZM82.9151 21.03C82.9151 21.4967 82.9898 21.9493 83.1391 22.388C83.2884 22.8267 83.4984 23.2187 83.7691 23.564C84.0491 23.9 84.3851 24.166 84.7771 24.362C85.1691 24.558 85.6078 24.656 86.0931 24.656C86.5971 24.656 87.0451 24.5533 87.4371 24.348C87.8291 24.1427 88.1558 23.8673 88.4171 23.522C88.6878 23.1673 88.8931 22.7753 89.0331 22.346C89.1731 21.9073 89.2431 21.4687 89.2431 21.03C89.2431 20.5633 89.1684 20.1153 89.0191 19.686C88.8791 19.2473 88.6691 18.86 88.3891 18.524C88.1091 18.1787 87.7731 17.908 87.3811 17.712C86.9984 17.516 86.5691 17.418 86.0931 17.418C85.5891 17.418 85.1411 17.5207 84.7491 17.726C84.3571 17.9313 84.0258 18.2067 83.7551 18.552C83.4844 18.8973 83.2744 19.2847 83.1251 19.714C82.9851 20.1433 82.9151 20.582 82.9151 21.03ZM96.6204 26.07C95.8271 26.07 95.1551 25.9347 94.6044 25.664C94.0631 25.3933 93.6244 25.0247 93.2884 24.558C92.9618 24.0913 92.7191 23.5593 92.5604 22.962C92.4111 22.3647 92.3364 21.744 92.3364 21.1V16.06H93.9044V21.1C93.9044 21.5573 93.9511 22.0007 94.0444 22.43C94.1378 22.85 94.2871 23.228 94.4924 23.564C94.6978 23.9 94.9731 24.166 95.3184 24.362C95.6731 24.558 96.1071 24.656 96.6204 24.656C97.1431 24.656 97.5771 24.558 97.9224 24.362C98.2771 24.1567 98.5524 23.886 98.7484 23.55C98.9538 23.2047 99.1031 22.822 99.1964 22.402C99.2898 21.982 99.3364 21.548 99.3364 21.1V16.06H100.918V21.1C100.918 21.7813 100.834 22.4253 100.666 23.032C100.508 23.6293 100.256 24.1567 99.9104 24.614C99.5744 25.062 99.1358 25.4167 98.5944 25.678C98.0531 25.9393 97.3951 26.07 96.6204 26.07ZM110.298 17.446H106.994V26H105.412V17.446H102.094V16.06H110.298V17.446Z" fill="white"/>
</svg>
