<svg width="141" height="43" viewBox="0 0 141 43" fill="none" xmlns="http://www.w3.org/2000/svg">
<rect x="1" y="0.5" width="139" height="42" fill="white"/>
<path d="M38.3574 16.06L41.3534 24.082L44.3354 16.06H46.0014L42.0954 26H40.6114L36.6914 16.06H38.3574ZM47.2157 26V16.06H48.7837V26H47.2157ZM57.8482 24.614V26H51.0302V16.06H57.7222V17.446H52.5982V20.274H57.0362V21.576H52.5982V24.614H57.8482ZM62.9937 16.102H64.4637L65.6957 19.476L66.9417 16.102H68.4117L66.7037 20.526L68.1877 24.18L71.2817 16.06H73.0037L68.9297 26H67.5717L65.7097 21.548L63.8337 26H62.4617L58.4017 16.06H60.1097L63.2177 24.18L64.7017 20.526L62.9937 16.102ZM84.9554 23.438C84.9554 23.97 84.8154 24.4273 84.5354 24.81C84.2648 25.1927 83.8961 25.4867 83.4294 25.692C82.9628 25.8973 82.4494 26 81.8894 26H77.1434V16.06H82.2674C82.7341 16.06 83.1354 16.186 83.4714 16.438C83.8168 16.6807 84.0781 16.998 84.2554 17.39C84.4421 17.7727 84.5354 18.174 84.5354 18.594C84.5354 19.0793 84.4094 19.5367 84.1574 19.966C83.9148 20.386 83.5648 20.6987 83.1074 20.904C83.6768 21.072 84.1248 21.38 84.4514 21.828C84.7874 22.2667 84.9554 22.8033 84.9554 23.438ZM83.3454 23.144C83.3454 22.864 83.2848 22.612 83.1634 22.388C83.0514 22.1547 82.8928 21.968 82.6874 21.828C82.4914 21.6787 82.2581 21.604 81.9874 21.604H78.7114V24.642H81.8894C82.1694 24.642 82.4168 24.5767 82.6314 24.446C82.8554 24.306 83.0281 24.124 83.1494 23.9C83.2801 23.6667 83.3454 23.4147 83.3454 23.144ZM78.7114 17.418V20.344H81.5954C81.8568 20.344 82.0901 20.2833 82.2954 20.162C82.5008 20.0313 82.6641 19.8587 82.7854 19.644C82.9068 19.42 82.9674 19.168 82.9674 18.888C82.9674 18.5987 82.9114 18.3467 82.7994 18.132C82.6874 17.908 82.5334 17.7353 82.3374 17.614C82.1508 17.4833 81.9314 17.418 81.6794 17.418H78.7114ZM89.2556 16.06H90.7396L94.6036 26H92.9516L91.9016 23.298H88.0656L87.0296 26H85.3636L89.2556 16.06ZM91.5936 22.136L89.9976 17.782L88.3456 22.136H91.5936ZM99.5101 26.07C98.8567 26.07 98.2454 25.9347 97.6761 25.664C97.1067 25.3933 96.6074 25.02 96.1781 24.544C95.7581 24.068 95.4267 23.5267 95.1841 22.92C94.9507 22.3133 94.8341 21.6693 94.8341 20.988C94.8341 20.3067 94.9507 19.6673 95.1841 19.07C95.4267 18.4727 95.7581 17.9407 96.1781 17.474C96.6074 17.0073 97.1067 16.6433 97.6761 16.382C98.2547 16.1207 98.8847 15.99 99.5661 15.99C100.509 15.99 101.302 16.1907 101.946 16.592C102.599 16.984 103.089 17.5067 103.416 18.16L102.212 19.028C101.951 18.4867 101.577 18.0807 101.092 17.81C100.616 17.5393 100.093 17.404 99.5241 17.404C99.0574 17.404 98.6327 17.502 98.2501 17.698C97.8674 17.894 97.5361 18.1647 97.2561 18.51C96.9854 18.846 96.7801 19.2333 96.6401 19.672C96.5001 20.1013 96.4301 20.554 96.4301 21.03C96.4301 21.534 96.5094 22.0053 96.6681 22.444C96.8267 22.8827 97.0507 23.27 97.3401 23.606C97.6294 23.9327 97.9701 24.1893 98.3621 24.376C98.7541 24.5627 99.1787 24.656 99.6361 24.656C100.177 24.656 100.691 24.5207 101.176 24.25C101.671 23.97 102.133 23.5547 102.562 23.004V24.6C101.694 25.58 100.677 26.07 99.5101 26.07ZM102.408 22.136H100.322V20.974H103.724V26H102.408V22.136Z" fill="#1D1F22"/>
<rect x="1" y="0.5" width="139" height="42" stroke="#1D1F22"/>
</svg>
