<svg width="292" height="52" viewBox="0 0 292 52" fill="none" xmlns="http://www.w3.org/2000/svg">
<rect width="292" height="52" fill="#5ECE7B"/>
<path d="M113.855 31V22.904L110.511 29.048H109.455L106.095 22.904V31H104.303V19.64H106.223L109.983 26.584L113.743 19.64H115.663V31H113.855ZM121.505 19.64H123.201L127.617 31H125.729L124.529 27.912H120.145L118.961 31H117.057L121.505 19.64ZM124.177 26.584L122.353 21.608L120.465 26.584H124.177ZM129.022 31V19.64H130.814V31H129.022ZM135.174 22.968V31H133.382V19.64H134.854L141.286 27.848V19.656H143.094V31H141.526L135.174 22.968ZM149.6 31V19.64H154.368C154.88 19.64 155.35 19.7467 155.776 19.96C156.203 20.1733 156.576 20.456 156.896 20.808C157.216 21.16 157.462 21.5547 157.632 21.992C157.803 22.4293 157.888 22.8773 157.888 23.336C157.888 23.9653 157.744 24.568 157.456 25.144C157.179 25.7093 156.779 26.168 156.256 26.52C155.744 26.872 155.147 27.048 154.464 27.048H151.392V31H149.6ZM151.392 25.464H154.352C154.694 25.464 154.992 25.3733 155.248 25.192C155.504 25 155.702 24.744 155.84 24.424C155.99 24.104 156.064 23.7413 156.064 23.336C156.064 22.92 155.979 22.552 155.808 22.232C155.638 21.912 155.414 21.6667 155.136 21.496C154.87 21.3147 154.576 21.224 154.256 21.224H151.392V25.464ZM162.037 19.64H163.733L168.149 31H166.261L165.061 27.912H160.677L159.493 31H157.589L162.037 19.64ZM164.709 26.584L162.885 21.608L160.997 26.584H164.709ZM173.756 31.08C173.009 31.08 172.311 30.9253 171.66 30.616C171.009 30.3067 170.439 29.88 169.948 29.336C169.468 28.792 169.089 28.1733 168.812 27.48C168.545 26.7867 168.412 26.0507 168.412 25.272C168.412 24.4933 168.545 23.7627 168.812 23.08C169.089 22.3973 169.468 21.7893 169.948 21.256C170.439 20.7227 171.009 20.3067 171.66 20.008C172.321 19.7093 173.041 19.56 173.82 19.56C174.897 19.56 175.804 19.7893 176.54 20.248C177.287 20.696 177.847 21.2933 178.22 22.04L176.844 23.032C176.545 22.4133 176.119 21.9493 175.564 21.64C175.02 21.3307 174.423 21.176 173.772 21.176C173.239 21.176 172.753 21.288 172.316 21.512C171.879 21.736 171.5 22.0453 171.18 22.44C170.871 22.824 170.636 23.2667 170.476 23.768C170.316 24.2587 170.236 24.776 170.236 25.32C170.236 25.896 170.327 26.4347 170.508 26.936C170.689 27.4373 170.945 27.88 171.276 28.264C171.607 28.6373 171.996 28.9307 172.444 29.144C172.892 29.3573 173.377 29.464 173.9 29.464C174.519 29.464 175.105 29.3093 175.66 29C176.225 28.68 176.753 28.2053 177.244 27.576V29.4C176.252 30.52 175.089 31.08 173.756 31.08ZM177.068 26.584H174.684V25.256H178.572V31H177.068V26.584ZM188.408 29.416V31H180.616V19.64H188.264V21.224H182.408V24.456H187.48V25.944H182.408V29.416H188.408Z" fill="white"/>
</svg>
