<svg width="52" height="52" viewBox="0 0 52 52" fill="none" xmlns="http://www.w3.org/2000/svg">
<circle cx="26" cy="26" r="26" fill="#C7C7C7"/>
<path d="M37.4736 19.8483C37.0186 19.2924 36.3109 18.9545 35.5785 18.9545H20.1907L19.711 17.1668C19.4326 16.1276 18.4732 15.4027 17.3608 15.4027H14.7837C14.3544 15.4027 14 15.7406 14 16.1522C14 16.5627 14.3534 16.9016 14.7837 16.9016H17.3608C17.7398 16.9016 18.0685 17.1432 18.1692 17.5057L21.2517 29.2493C21.53 30.2885 22.4894 31.0134 23.6018 31.0134H33.6833C34.7947 31.0134 35.7808 30.2885 36.0335 29.2493L37.9286 21.8069C38.1053 21.1292 37.9543 20.4043 37.4736 19.8484L37.4736 19.8483ZM36.3879 21.467L34.4927 28.9094C34.3921 29.2718 34.0634 29.5135 33.6844 29.5135H23.6018C23.2228 29.5135 22.8941 29.2718 22.7935 28.9094L20.5953 20.4771H35.5796C35.8323 20.4771 36.085 20.5979 36.237 20.7914C36.388 20.9839 36.463 21.2256 36.388 21.4672L36.3879 21.467Z" fill="white"/>
<path d="M24.1332 31.9778C22.6932 31.9778 21.5059 33.1133 21.5059 34.4903C21.5059 35.8673 22.6933 37.0027 24.1332 37.0027C25.5733 37.0037 26.7606 35.8682 26.7606 34.491C26.7606 33.1138 25.5732 31.9776 24.1332 31.9776V31.9778ZM24.1332 35.4814C23.5519 35.4814 23.0968 35.0463 23.0968 34.4904C23.0968 33.9344 23.5519 33.4993 24.1332 33.4993C24.7146 33.4993 25.1696 33.9344 25.1696 34.4904C25.1687 35.0227 24.689 35.4814 24.1332 35.4814Z" fill="white"/>
<path d="M32.825 31.9778C31.385 31.9778 30.1977 33.1132 30.1977 34.4902C30.1977 35.8672 31.3851 37.0027 32.825 37.0027C34.265 37.0027 35.4524 35.8672 35.4524 34.4902C35.4278 33.1141 34.265 31.9778 32.825 31.9778ZM32.825 35.4814C32.2437 35.4814 31.7886 35.0462 31.7886 34.4903C31.7886 33.9344 32.2437 33.4992 32.825 33.4992C33.4064 33.4992 33.8614 33.9344 33.8614 34.4903C33.8614 35.0226 33.3808 35.4814 32.825 35.4814Z" fill="white"/>
</svg>
